<svg width="25" height="25" viewBox="0 0 25 25" fill="none" xmlns="http://www.w3.org/2000/svg">
<path d="M12.5 25C5.60708 25 0 19.3929 0 12.5C0 5.60708 5.60708 0 12.5 0C19.3929 0 25 5.60806 25 12.5C25 19.3919 19.3929 25 12.5 25ZM12.5 1.93647C6.67603 1.93647 1.93647 6.67505 1.93647 12.5C1.93647 18.325 6.67603 23.0635 12.5 23.0635C18.324 23.0635 23.0635 18.325 23.0635 12.5C23.0635 6.67505 18.325 1.93647 12.5 1.93647Z" fill="black"/>
<path d="M17.3412 13.5554H13.4683V17.4283C13.4683 17.9628 13.0355 18.3966 12.5 18.3966C11.9646 18.3966 11.5318 17.9628 11.5318 17.4283V13.5554H7.65881C7.12336 13.5554 6.69055 13.1216 6.69055 12.5871C6.69055 12.0526 7.12336 11.6189 7.65881 11.6189H11.5318V7.7459C11.5318 7.21143 11.9646 6.77764 12.5 6.77764C13.0355 6.77764 13.4683 7.21143 13.4683 7.7459V11.6189H17.3412C17.8767 11.6189 18.3095 12.0526 18.3095 12.5871C18.3095 13.1216 17.8767 13.5554 17.3412 13.5554Z" fill="black"/>
</svg>
