<svg width="30" height="30" viewBox="0 0 30 30" fill="none" xmlns="http://www.w3.org/2000/svg">
<path d="M29.1211 24.668H8.86201V22.0312C8.86201 21.5454 8.46891 21.1523 7.98311 21.1523C7.4973 21.1523 7.1042 21.5454 7.1042 22.0312V24.668H0.878906C0.38666 24.668 0 24.2813 0 23.7891V18.5156C0 18.0235 0.38666 17.6367 0.878906 17.6367C2.33795 17.6367 3.51562 16.459 3.51562 15C3.51562 13.5411 2.33795 12.3633 0.878906 12.3633C0.38666 12.3633 0 11.9766 0 11.4844V6.21094C0 5.71881 0.38666 5.33203 0.878906 5.33203H7.03125V7.96875C7.03125 8.45455 7.42436 8.84766 7.91016 8.84766C8.39596 8.84766 8.78906 8.45455 8.78906 7.96875V5.33203H29.1211C29.6133 5.33203 30 5.71881 30 6.21094V23.7891C30 24.2813 29.6133 24.668 29.1211 24.668ZM8.78906 11.4844C8.78906 10.9986 8.39596 10.6055 7.91016 10.6055C7.42436 10.6055 7.03125 10.9986 7.03125 11.4844V13.2422C7.03125 13.728 7.42436 14.1211 7.91016 14.1211C8.39596 14.1211 8.78906 13.728 8.78906 13.2422V11.4844ZM8.78906 16.7578C8.78906 16.272 8.39596 15.8789 7.91016 15.8789C7.42436 15.8789 7.03125 16.272 7.03125 16.7578V18.5156C7.03125 19.0014 7.42436 19.3945 7.91016 19.3945C8.39596 19.3945 8.78906 19.0014 8.78906 18.5156V16.7578Z" fill="#FD4E26"/>
<path d="M3.51562 15C3.51562 13.5411 2.33795 12.3633 0.878906 12.3633C0.38666 12.3633 0 11.9766 0 11.4844V6.21094C0 5.71881 0.38666 5.33203 0.878906 5.33203H7.03125V7.96875C7.03125 8.45455 7.42436 8.84766 7.91016 8.84766C8.39596 8.84766 8.78906 8.45455 8.78906 7.96875V5.33203H29.1211C29.6133 5.33203 30 5.71881 30 6.21094V15H3.51562ZM8.78906 11.4844C8.78906 10.9986 8.39596 10.6055 7.91016 10.6055C7.42436 10.6055 7.03125 10.9986 7.03125 11.4844V13.2422C7.03125 13.728 7.42436 14.1211 7.91016 14.1211C8.39596 14.1211 8.78906 13.728 8.78906 13.2422V11.4844Z" fill="#FD3018"/>
<path d="M16.8164 15.8789C15.3625 15.8789 14.1797 17.0617 14.1797 18.5156C14.1797 19.9696 15.3625 21.1523 16.8164 21.1523C18.2704 21.1523 19.4531 19.9696 19.4531 18.5156C19.4531 17.0617 18.2704 15.8789 16.8164 15.8789Z" fill="#FEDB41"/>
<path d="M23.8477 8.84766C22.3937 8.84766 21.2109 10.0304 21.2109 11.4844C21.2109 12.9383 22.3937 14.1211 23.8477 14.1211C25.3016 14.1211 26.4844 12.9383 26.4844 11.4844C26.4844 10.0304 25.3016 8.84766 23.8477 8.84766Z" fill="#FCBF29"/>
<path d="M24.5859 19.7813L21.4043 15L20.332 13.4004L17.5546 9.23443C17.291 8.84765 16.7461 8.7246 16.3241 8.98833C15.9199 9.26952 15.8144 9.81445 16.0781 10.2188L19.2597 15L20.332 16.5997L23.1094 20.7657C23.3906 21.1699 23.9355 21.2754 24.3399 21.0118C24.7441 20.7305 24.8496 20.1856 24.5859 19.7813Z" fill="#FEDB41"/>
<path d="M21.4043 15L20.332 13.4004L17.5546 9.23444C17.291 8.84766 16.7461 8.72461 16.3241 8.98834C15.9199 9.26953 15.8144 9.81446 16.0781 10.2188L19.2597 15H21.4043Z" fill="#FCBF29"/>
</svg>
