<svg width="55" height="53" viewBox="0 0 55 53" fill="none" xmlns="http://www.w3.org/2000/svg">
<g clip-path="url(#clip0)">
<path d="M19.5743 32.7574H22.5207V33.6688C22.5202 33.9892 22.3544 34.2884 22.0788 34.4664L19.5744 36.0805V32.7574H19.5743Z" fill="#E64C3C"/>
<path d="M24.9761 8.20392H25.0154L24.9761 8.35579V8.20392Z" fill="#E64C3C"/>
<path d="M30.6823 14.0622C30.8022 14.1497 30.8715 14.2873 30.8689 14.4325V15.1921L30.1618 14.7364C30.0635 14.8882 29.9752 15.0402 29.8867 15.2016V14.4325C29.8854 14.3062 29.9368 14.1847 30.0292 14.0954C30.1215 14.0061 30.2472 13.9564 30.3778 13.9577C30.4872 13.9572 30.5939 13.9904 30.6823 14.0527C30.6726 14.0527 30.6823 14.0622 30.6823 14.0622Z" fill="#E64C3C"/>
<path d="M31.8806 8.20392L31.9689 8.71665C32.0071 8.86626 31.9624 9.02427 31.8511 9.13441V8.20392H31.8806Z" fill="#E64C3C"/>
<path d="M35.3867 9.6281C35.3202 9.66176 35.2458 9.67811 35.1707 9.67553C34.9852 9.67714 34.8145 9.57808 34.7288 9.41922L34.3556 8.55521L35.4949 8.73558L35.6029 8.99189C35.6644 9.10343 35.6762 9.23444 35.6354 9.35458C35.5946 9.47483 35.5048 9.57357 35.3867 9.6281Z" fill="#E64C3C"/>
<path d="M19.5743 32.7574H22.5207V33.6688C22.5202 33.9892 22.3544 34.2884 22.0788 34.4664L19.5744 36.0805V32.7574H19.5743Z" fill="#E64C3C"/>
<path d="M24.9761 8.20392H25.0154L24.9761 8.35579V8.20392Z" fill="#E64C3C"/>
<path d="M30.6823 14.0622C30.8022 14.1497 30.8715 14.2873 30.8689 14.4325V15.1921L30.1618 14.7364C30.0635 14.8882 29.9752 15.0402 29.8867 15.2016V14.4325C29.8854 14.3062 29.9368 14.1847 30.0292 14.0954C30.1215 14.0061 30.2472 13.9564 30.3778 13.9577C30.4872 13.9572 30.5939 13.9904 30.6823 14.0527C30.6726 14.0527 30.6823 14.0622 30.6823 14.0622Z" fill="#E64C3C"/>
<path d="M31.8806 8.20392L31.9689 8.71665C32.0071 8.86626 31.9624 9.02427 31.8511 9.13441V8.20392H31.8806Z" fill="#E64C3C"/>
<path d="M35.3867 9.6281C35.3202 9.66176 35.2458 9.67811 35.1707 9.67553C34.9852 9.67714 34.8145 9.57808 34.7288 9.41922L34.3556 8.55521L35.4949 8.73558L35.6029 8.99189C35.6644 9.10343 35.6762 9.23444 35.6354 9.35458C35.5946 9.47483 35.5048 9.57357 35.3867 9.6281Z" fill="#E64C3C"/>
<path d="M30.8691 14.4325V15.1921L30.162 14.7364C30.0637 14.8882 29.9754 15.0402 29.8869 15.2016V14.4325C29.8856 14.3062 29.937 14.1847 30.0293 14.0954C30.1217 14.0061 30.2474 13.9564 30.378 13.9577C30.4874 13.9572 30.5941 13.9904 30.6825 14.0527C30.6727 14.0527 30.6825 14.0622 30.6825 14.0622C30.8022 14.1497 30.8717 14.2873 30.8691 14.4325Z" fill="#F29C1F"/>
<path d="M25.0154 8.20392L24.9761 8.35579V8.20392H25.0154Z" fill="#E57E25"/>
<path d="M31.9689 8.71665C32.0071 8.86626 31.9624 9.02427 31.8511 9.13441V8.20392H31.8806L31.9689 8.71665Z" fill="#E57E25"/>
<path d="M35.3868 9.6281C35.3203 9.66176 35.2458 9.67811 35.1707 9.67553C34.9853 9.67714 34.8146 9.57808 34.7288 9.41922L34.3557 8.55521L35.4949 8.73558L35.603 8.99189C35.6645 9.10343 35.6763 9.23444 35.6355 9.35458C35.5946 9.47483 35.5048 9.57357 35.3868 9.6281Z" fill="#E57E25"/>
<path d="M54.7154 50.656L55.9136 50.3236L48.9011 26.5866L47.4967 21.8298C46.6458 18.9453 44.1166 16.8164 41.0441 16.3987L40.1896 16.2753C39.9312 16.2411 39.6976 16.1085 39.5409 15.9071C39.3841 15.7056 39.3171 15.4519 39.3548 15.2024L40.1995 9.49598L35.0825 2.43189C34.2971 1.35028 33.1483 0.565111 31.8317 0.210062C31.4575 0.103902 31.0719 0.040228 30.6826 0.0201147C30.6043 0.0122629 30.5256 0.00903619 30.4468 0.0106496C30.385 0.00279782 30.3226 -0.000428921 30.2602 0.00118445H25.8602C25.6732 0.00118445 25.4864 0.0107571 25.3003 0.0296873C24.8897 0.0647513 24.4845 0.144344 24.0923 0.267068C22.7176 0.684286 21.5477 1.57218 20.8022 2.76424L16.628 9.49619L17.4727 15.2026C17.5104 15.4521 17.4434 15.7057 17.2866 15.9073C17.1299 16.1088 16.8963 16.2414 16.6379 16.2755L15.7834 16.3989C12.7109 16.8166 10.1816 18.9454 9.33077 21.83L7.92636 26.5868L0.913635 50.3237L2.11189 50.6561L1.24763 53.1437C1.16063 53.3956 1.18655 53.671 1.31895 53.9037C1.45135 54.1363 1.67831 54.3048 1.945 54.3686L4.02709 54.8718C4.49537 54.9866 4.98102 54.7579 5.17616 54.3306L6.28597 51.805L7.78862 52.2228L9.69403 47.3994L15.6458 32.2838V50.2668C15.6456 51.4446 16.395 52.5011 17.5315 52.9253L18.1895 53.1722C18.9654 53.457 19.7609 53.7134 20.5564 53.9318C22.003 54.333 23.4812 54.6187 24.976 54.7863C25.3001 54.8337 25.634 54.8622 25.9582 54.8907C27.2642 55.0078 28.5774 55.0299 29.8868 54.9572C30.2108 54.9382 30.5447 54.9192 30.8689 54.8907C32.6974 54.7405 34.5064 54.4194 36.2708 53.9318C37.0663 53.7134 37.8619 53.457 38.6377 53.1722L39.2956 52.9253C40.4322 52.5011 41.1816 51.4446 41.1814 50.2668V32.2837L41.2206 32.3786L47.1921 47.5323L49.0385 52.2227L50.5412 51.8049L51.651 54.3305C51.8461 54.7577 52.3318 54.9865 52.8001 54.8717L54.8822 54.3684C55.1487 54.3048 55.3757 54.1362 55.5082 53.9036C55.6406 53.6709 55.6665 53.3955 55.5795 53.1436L54.7154 50.656ZM35.4948 8.73651L35.6029 8.99282C35.6644 9.10436 35.6762 9.23537 35.6354 9.35551C35.5945 9.47565 35.5047 9.57439 35.3868 9.62903C35.3203 9.66269 35.2458 9.67904 35.1707 9.67646C34.9853 9.67808 34.8146 9.57901 34.7288 9.42015L34.3557 8.55614L35.4948 8.73651ZM31.969 8.71758C32.0071 8.86719 31.9625 9.0252 31.8511 9.13534V8.20485H31.8806L31.969 8.71758ZM24.9761 8.35672V8.20485H25.0154L24.9761 8.35672ZM22.5208 33.6699C22.5202 33.9903 22.3545 34.2894 22.0789 34.4674L19.5744 36.0815V32.7583H22.5209V33.6699H22.5208ZM30.1619 14.7373C30.0637 14.8892 29.9753 15.0411 29.8869 15.2026V14.4334C29.8855 14.3072 29.9369 14.1856 30.0293 14.0963C30.1216 14.0071 30.2473 13.9574 30.378 13.9587C30.4873 13.9581 30.594 13.9914 30.6825 14.0536C30.6727 14.0536 30.6825 14.0631 30.6825 14.0631C30.8023 14.1507 30.8716 14.2882 30.8691 14.4334V15.193L30.1619 14.7373Z" fill="#802F34"/>
<path d="M30.6823 14.0622C30.8021 14.1497 30.8715 14.2873 30.8689 14.4325V15.1921L30.1617 14.7364C30.26 14.5845 30.3778 14.4325 30.4956 14.2806C30.503 14.2663 30.513 14.2534 30.5251 14.2427C30.5721 14.1753 30.6246 14.1118 30.6822 14.0527C30.6725 14.0527 30.6823 14.0622 30.6823 14.0622Z" fill="#C03A2B"/>
<path d="M27.9226 37.5048C27.7239 37.5065 27.5439 37.3913 27.4682 37.2137C27.3924 37.0361 27.4359 36.8318 27.5782 36.6977C27.6196 36.6495 27.6741 36.6133 27.7355 36.5933C27.9178 36.5207 28.1275 36.5619 28.2659 36.6977C28.3602 36.7841 28.4137 36.9042 28.4137 37.0298C28.4137 37.1554 28.3602 37.2756 28.2659 37.3619C28.2247 37.4104 28.1702 37.4468 28.1086 37.4667C28.0503 37.4928 27.9868 37.5058 27.9226 37.5048Z" fill="#F29C1F"/>
<path d="M27.9226 52.6965C27.7239 52.6982 27.5439 52.583 27.4682 52.4054C27.3924 52.2279 27.4359 52.0235 27.5782 51.8894C27.7163 51.753 27.9263 51.7117 28.1086 51.785C28.1701 51.8048 28.2246 51.841 28.2659 51.8894C28.3602 51.9759 28.4137 52.0959 28.4137 52.2215C28.4137 52.3471 28.3602 52.4673 28.2659 52.5537C28.2247 52.6022 28.1702 52.6385 28.1086 52.6584C28.0503 52.6844 27.9868 52.6975 27.9226 52.6965Z" fill="#F29C1F"/>
<path d="M22.5208 32.7574V33.6688C22.5203 33.9892 22.3545 34.2884 22.0789 34.4664L19.5745 36.0805V32.7573H22.5208V32.7574Z" fill="#E6E7E8"/>
<path d="M24.9761 8.20392H25.0154L24.9761 8.35579V8.20392Z" fill="#E57E25"/>
<path d="M30.3779 13.9577C30.4873 13.9572 30.594 13.9904 30.6824 14.0527C30.6726 14.0527 30.6824 14.0622 30.6824 14.0622C30.6217 14.115 30.5687 14.1757 30.5253 14.2426C30.5096 14.2498 30.4986 14.264 30.4958 14.2805C30.378 14.4324 30.2601 14.5844 30.162 14.7363C30.0638 14.8881 29.9754 15.0401 29.8869 15.2015V14.4324C29.8856 14.3061 29.937 14.1846 30.0293 14.0953C30.1216 14.0061 30.2473 13.9566 30.3779 13.9577Z" fill="#E57E25"/>
<path d="M31.8806 8.20392L31.9689 8.71665C32.0071 8.86626 31.9624 9.02427 31.8511 9.13441V8.20392H31.8806Z" fill="#E57E25"/>
<path d="M35.3868 9.6281C35.3203 9.66176 35.2458 9.67811 35.1707 9.67553C34.9853 9.67714 34.8146 9.57808 34.7288 9.41922L34.3557 8.55521L35.4949 8.73558L35.603 8.99189C35.6645 9.10343 35.6763 9.23444 35.6355 9.35458C35.5946 9.47483 35.5048 9.57357 35.3868 9.6281Z" fill="#E57E25"/>
<path d="M55.5797 53.1421C55.6668 53.394 55.6408 53.6695 55.5084 53.9021C55.376 54.1347 55.1491 54.3032 54.8824 54.367L52.8003 54.8702C52.332 54.985 51.8464 54.7563 51.6512 54.329L50.5414 51.8034L49.0388 52.2212L47.1923 47.5308L41.2209 32.3772L41.1816 32.2822V50.2652C41.1818 51.443 40.4324 52.4995 39.2959 52.9238L38.6379 53.1706C37.862 53.4554 37.0665 53.7118 36.271 53.9302C34.5066 54.4177 32.6976 54.7389 30.8692 54.8892C30.5451 54.9177 30.2112 54.9366 29.887 54.9556C28.5776 55.0284 27.2644 55.0062 25.9584 54.8892C25.6343 54.8607 25.3005 54.8322 24.9763 54.7847C23.4814 54.6171 22.0032 54.3314 20.5566 53.9302C19.7611 53.7118 18.9655 53.4554 18.1897 53.1706L17.5317 52.9238C16.3952 52.4995 15.6458 51.443 15.646 50.2652V32.2821L9.69403 47.3977L7.78862 52.2211L6.28597 51.8033L5.17616 54.3289C4.98102 54.7561 4.49537 54.9849 4.02709 54.8701L1.945 54.3669C1.67842 54.3032 1.45146 54.1346 1.31895 53.902C1.18644 53.6693 1.16063 53.3939 1.24763 53.142L2.11189 50.6544L0.913635 50.322L7.92614 26.585L9.33055 21.8282C10.1815 18.9437 12.7107 16.8148 15.7832 16.3971L16.6377 16.2737C16.8961 16.2395 17.1296 16.107 17.2864 15.9055C17.4432 15.704 17.5102 15.4503 17.4724 15.2008L16.6278 9.49439L20.8018 2.76254C21.5474 1.57059 22.7173 0.682586 24.092 0.265369C24.4842 0.142645 24.8894 0.0630518 25.3 0.0279879C25.4859 0.00905767 25.6728 -0.00040744 25.8599 -0.000514998H30.2599C30.3223 -0.00212837 30.3846 0.00109837 30.4465 0.00895011C30.5252 0.00733674 30.6039 0.0105635 30.6822 0.0184152C31.0717 0.038421 31.4573 0.102203 31.8313 0.208363C33.1481 0.563412 34.2968 1.34848 35.0822 2.43019L40.1992 9.49439L39.3545 15.2008C39.3168 15.4503 39.3838 15.7039 39.5405 15.9055C39.6973 16.107 39.9309 16.2396 40.1893 16.2737L41.0437 16.3971C44.1162 16.8148 46.6456 18.9436 47.4964 21.8282L48.9008 26.585L55.9133 50.322L54.715 50.6544L55.5797 53.1421Z" fill="#E64C3C"/>
<path d="M28.4051 18.1295C26.7816 27.2706 25.9631 36.5284 25.9583 45.8032V54.8897C25.6342 54.8612 25.3003 54.8327 24.9761 54.7853V45.8032C24.9772 36.4707 25.8024 27.1553 27.4426 17.9586C27.4915 17.7016 27.7465 17.5316 28.0123 17.5788C28.2781 17.626 28.454 17.8726 28.4051 18.1295Z" fill="#F29C1F"/>
<path d="M30.869 14.4325V54.8897C30.5449 54.9182 30.211 54.9371 29.8868 54.9562V14.4325C29.8868 14.1703 30.1067 13.9577 30.3779 13.9577C30.6491 13.9577 30.869 14.1703 30.869 14.4325Z" fill="#F29C1F"/>
<path d="M26.8815 0.00134087L24.8681 8.83143C24.82 9.05031 24.6183 9.20562 24.3868 9.20175C24.3538 9.20326 24.3207 9.20014 24.2886 9.19229C24.1618 9.16658 24.051 9.0929 23.9808 8.9876C23.9107 8.8823 23.8871 8.75431 23.9153 8.63212L25.8698 0.00134087H26.8815V0.00134087Z" fill="#E57E25"/>
<path d="M31.5957 9.28629C31.5603 9.29457 31.524 9.2978 31.4877 9.29576C31.261 9.29242 31.066 9.13937 31.0163 8.92544L29.4449 0.000482546H30.2601C30.3225 -0.00113083 30.3848 0.00209592 30.4467 0.00994766L31.969 8.71667C32.0281 8.97351 31.8612 9.22821 31.5957 9.28629Z" fill="#E57E25"/>
<path d="M25.3003 0.0288544L20.7529 9.48568C20.6652 9.64293 20.4957 9.74124 20.311 9.74199C20.2359 9.74457 20.1615 9.72823 20.0949 9.69456C19.9776 9.63938 19.8878 9.54118 19.8454 9.42179C19.803 9.3024 19.8116 9.17161 19.8691 9.05835L24.0923 0.266235C24.4844 0.143619 24.8897 0.0640259 25.3003 0.0288544Z" fill="#E57E25"/>
<path d="M35.3869 9.62735C35.3203 9.66102 35.2459 9.67737 35.1708 9.67479C34.9853 9.6764 34.8147 9.57734 34.7289 9.41847L30.6824 0.018652C31.0718 0.0386578 31.4575 0.10244 31.8315 0.2086L35.6029 8.99125C35.6645 9.10279 35.6763 9.2338 35.6354 9.35394C35.5947 9.47408 35.5049 9.57282 35.3869 9.62735Z" fill="#E57E25"/>
<path d="M6.28603 51.8056L5.17134 54.3274C4.98175 54.7562 4.498 54.9886 4.02994 54.8754L1.94351 54.3712C1.67794 54.307 1.45219 54.1386 1.32057 53.9066C1.18896 53.6746 1.16348 53.4 1.25026 53.1491L2.11195 50.6568" fill="#802F34"/>
<path d="M54.7155 50.655L55.5772 53.1474C55.664 53.3983 55.6385 53.6729 55.5069 53.9049C55.3752 54.1369 55.1495 54.3054 54.8839 54.3695L52.7975 54.8737C52.3294 54.9868 51.8457 54.7545 51.6562 54.3256L50.5415 51.8038" fill="#802F34"/>
<path d="M37.2529 10.6346V12.752C37.2573 13.0883 37.0732 13.4007 36.7716 13.5686L32.8724 15.8284C32.5473 16.0173 32.1391 16.0098 31.8215 15.8093L30.1616 14.7365C30.9361 13.5565 32.0727 12.6403 33.4125 12.1159L37.2529 10.6346Z" fill="#C03A2B"/>
<path d="M27.9226 37.5048C27.7239 37.5065 27.5439 37.3913 27.4682 37.2137C27.3924 37.0361 27.4359 36.8318 27.5782 36.6977C27.6196 36.6495 27.6741 36.6133 27.7355 36.5933C27.9178 36.5207 28.1275 36.5619 28.2659 36.6977C28.3602 36.7841 28.4137 36.9042 28.4137 37.0298C28.4137 37.1554 28.3602 37.2756 28.2659 37.3619C28.2247 37.4104 28.1702 37.4468 28.1086 37.4667C28.0503 37.4928 27.9868 37.5058 27.9226 37.5048Z" fill="#F29C1F"/>
<path d="M27.9226 52.6965C27.7239 52.6982 27.5439 52.583 27.4682 52.4054C27.3924 52.2279 27.4359 52.0235 27.5782 51.8894C27.7163 51.753 27.9263 51.7117 28.1086 51.785C28.1701 51.8048 28.2246 51.841 28.2659 51.8894C28.3602 51.9759 28.4137 52.0959 28.4137 52.2215C28.4137 52.3471 28.3602 52.4673 28.2659 52.5537C28.2247 52.6022 28.1702 52.6385 28.1086 52.6584C28.0503 52.6844 27.9868 52.6975 27.9226 52.6965Z" fill="#F29C1F"/>
<path d="M17.8261 18.4109L15.9699 19.3034C13.8752 20.3216 12.2827 22.1001 11.5405 24.2502L10.9609 25.9401C10.8224 26.3244 10.4488 26.5829 10.0279 26.5858H7.92615L9.33056 21.8289C10.1815 18.9445 12.7107 16.8156 15.7832 16.3979L16.6377 16.2744C16.8961 16.2402 17.1297 16.1077 17.2864 15.9063C17.4432 15.7048 17.5102 15.4511 17.4724 15.2015L17.61 15.1921L18.3269 17.2619C18.4772 17.7119 18.2643 18.2005 17.8261 18.4109Z" fill="#C03A2B"/>
<path d="M48.9011 26.5858H46.7994C46.3785 26.583 46.0049 26.3244 45.8664 25.9401L45.2869 24.2501C44.5446 22.1001 42.9522 20.3215 40.8575 19.3033L39.0013 18.4107C38.5633 18.2005 38.3502 17.7119 38.5004 17.2619L39.2173 15.1921L39.3549 15.2015C39.3171 15.4511 39.3841 15.7047 39.5409 15.9063C39.6976 16.1077 39.9313 16.2403 40.1896 16.2744L41.0441 16.3979C44.1166 16.8156 46.6459 18.9443 47.4967 21.8289L48.9011 26.5858Z" fill="#C03A2B"/>
<path d="M20.5566 52.4686V53.9308C19.7611 53.7125 18.9654 53.4561 18.1896 53.1712L17.5317 52.9244C16.3951 52.5002 15.6457 51.4437 15.6459 50.2659V47.4744L18.6512 49.212C19.8303 49.9019 20.5523 51.136 20.5566 52.4686Z" fill="#C03A2B"/>
<path d="M41.1815 47.4743V50.2658C41.1817 51.4436 40.4323 52.5001 39.2958 52.9243L38.6378 53.1711C37.8619 53.456 37.0664 53.7124 36.2709 53.9307V52.4685C36.2751 51.1359 36.9972 49.9018 38.1762 49.2117L41.1815 47.4743Z" fill="#C03A2B"/>
<path d="M15.6458 32.2827L9.69405 47.3984L7.48424 44.5405C7.06446 44.0071 6.9709 43.2978 7.23869 42.6795L11.2164 33.4506C11.5221 32.7462 12.2334 32.2865 13.0236 32.2827H15.6458Z" fill="#C03A2B"/>
<path d="M49.6279 44.5405L47.3591 47.4743L47.1921 47.5313L41.2206 32.3777L41.4662 32.2827H44.0786C44.872 32.2836 45.5879 32.7436 45.8956 33.4506L49.8733 42.6795C50.1363 43.2983 50.0431 44.0052 49.6279 44.5405Z" fill="#C03A2B"/>
<path d="M22.5208 28.4847V33.6689C22.5203 33.9893 22.3545 34.2885 22.0789 34.4665L19.5745 36.0806V28.4847C19.5761 27.961 20.0148 27.5368 20.5567 27.5352H21.5388C22.0804 27.5368 22.5193 27.961 22.5208 28.4847Z" fill="#E6E7E8"/>
<path d="M22.5207 29.4343H19.5743V30.3838H22.5207V29.4343Z" fill="white"/>
<path d="M22.5207 31.808H19.5743V32.7575H22.5207V31.808Z" fill="white"/>
<path d="M40.1995 9.49526L37.253 10.6346L33.4128 12.1158C32.8542 12.3339 32.3288 12.6247 31.8512 12.9798C31.4898 13.2296 31.1602 13.5195 30.869 13.8438C30.6058 14.1199 30.369 14.4187 30.1618 14.7363C29.8432 15.2294 29.5892 15.7588 29.4056 16.3125L27.9226 20.889L26.3904 16.1606C26.1009 15.2633 25.6191 14.4351 24.9761 13.7299C24.6826 13.4051 24.3533 13.1122 23.9939 12.8564C23.5748 12.5396 23.1161 12.2748 22.6288 12.0684L16.6281 9.49526L23.4048 8.40333L23.9941 8.31793C24.3182 8.2705 24.6521 8.23253 24.9763 8.20402C26.9321 7.97783 28.9067 7.94599 30.8692 8.10905C31.2031 8.12809 31.5272 8.15648 31.8514 8.20402C32.3818 8.25146 32.9024 8.31793 33.4228 8.40344L40.1995 9.49526Z" fill="#E57E25"/>
<path d="M24.9761 8.20393V13.7299C24.6826 13.4051 24.3533 13.1122 23.994 12.8565V8.31783C24.3182 8.2704 24.6521 8.23243 24.9761 8.20393Z" fill="#F29C1F"/>
<path d="M31.8511 8.20392V12.9798C31.4897 13.2296 31.1601 13.5196 30.8689 13.8438V8.10895C31.2029 8.12799 31.527 8.15649 31.8511 8.20392Z" fill="#F29C1F"/>
</g>
<defs>
<clipPath id="clip0">
<rect width="55" height="53" fill="white"/>
</clipPath>
</defs>
</svg>
