<svg width="55" height="53" viewBox="0 0 55 53" fill="none" xmlns="http://www.w3.org/2000/svg">
<path d="M55 48.7407C55 51.093 52.5424 53 49.5109 53H5.48903C2.45756 53 0 51.093 0 48.7407V14.0293C0 11.677 2.45756 9.77 5.48903 9.77H49.5109C52.5424 9.77 55 11.677 55 14.0293V48.7407Z" fill="#365E7D"/>
<path d="M55 14.0293C55 11.677 52.5424 9.77 49.511 9.77H46.1345C49.166 9.77 51.6235 11.677 51.6235 14.0293V48.7407C51.6235 51.093 49.166 53 46.1345 53H49.511C52.5424 53 55 51.093 55 48.7407V14.0293Z" fill="#2B4D66"/>
<path d="M11.8609 5.19586L27.5 43.635L43.139 5.19586H11.8609Z" fill="#D0CEE7"/>
<path d="M41.8399 8.3888L43.139 5.19586H39.5071L41.8399 8.3888Z" fill="#BEB9DD"/>
<path d="M27.4999 11.6444L35.5503 4.14436H19.4495L27.4999 11.6444Z" fill="#365E7D"/>
<path d="M19.4497 4.14435H35.5504L39.9988 0H15.0013L19.4497 4.14435Z" fill="#4A80AA"/>
<path d="M36.6532 0L32.2048 4.14435H35.5503L39.9974 0.00124219L39.9966 0L36.6532 0Z" fill="#407093"/>
<path d="M18.3455 0L22.7939 4.14435H19.4484L15.0013 0.00124219L15.0021 0L18.3455 0Z" fill="#407093"/>
<path d="M32.8195 32.2313L27.4998 43.6351L22.1801 32.2313L24.6486 11.513H30.351L32.8195 32.2313Z" fill="#DD636E"/>
<path d="M30.3513 11.513H27.6469L29.7862 29.4676C29.8662 30.1398 29.7543 30.8174 29.4581 31.4522L25.6376 39.6423L27.5 43.6351L32.8198 32.2313L30.3513 11.513Z" fill="#DA4A54"/>
<path d="M27.5 11.6444L15.0012 0L11.8609 5.19586L22.4914 14.3119C22.5349 14.3491 22.6074 14.3551 22.6601 14.326L27.5 11.6444Z" fill="#F9F6F9"/>
<path d="M27.5 11.6444L39.9987 0L43.139 5.19586L32.5085 14.3119C32.465 14.3491 32.3926 14.3551 32.3399 14.326L27.5 11.6444Z" fill="#F9F6F9"/>
<path d="M37.4475 2.37682L40.9061 7.11059L43.139 5.19586L39.9987 0L37.4475 2.37682Z" fill="#DDDAEC"/>
<path d="M11.861 5.19586L4.88917 13.5959C4.86916 13.62 4.86369 13.6496 4.87397 13.677C4.88424 13.7044 4.90932 13.7271 4.94267 13.7392L11.7551 16.1941C11.8151 16.2157 11.8438 16.2693 11.8212 16.3176L8.74401 22.8938C8.72974 22.9243 8.73561 22.9581 8.75962 22.9845L27.5001 43.635L11.861 5.19586Z" fill="#4A80AA"/>
<path d="M43.1391 5.19586L50.1109 13.5959C50.1309 13.62 50.1364 13.6496 50.1261 13.677C50.1158 13.7044 50.0907 13.7271 50.0574 13.7392L43.245 16.1941C43.185 16.2157 43.1563 16.2693 43.1788 16.3176L46.256 22.8938C46.2703 22.9243 46.2645 22.9581 46.2404 22.9845L27.5 43.635L43.1391 5.19586Z" fill="#4A80AA"/>
<path d="M43.1392 5.19586L41.8401 8.3888L46.647 14.9682L50.0575 13.7392C50.091 13.7272 50.1159 13.7045 50.1262 13.677C50.1365 13.6496 50.1309 13.62 50.111 13.596L43.1392 5.19586Z" fill="#407093"/>
<path d="M49.3425 45.644H34.95C34.4817 45.644 34.1022 45.3495 34.1022 44.9862V43.3149C34.1022 42.9516 34.4817 42.6571 34.95 42.6571H49.3425C49.8108 42.6571 50.1903 42.9516 50.1903 43.3149V44.9862C50.1902 45.3495 49.8106 45.644 49.3425 45.644Z" fill="#4A80AA"/>
<path d="M49.3424 42.6572H46.785C47.2533 42.6572 47.6328 42.9517 47.6328 43.3151V44.9863C47.6328 45.3497 47.2533 45.6442 46.785 45.6442H49.3424C49.8106 45.6442 50.1902 45.3497 50.1902 44.9863V43.3151C50.19 42.9517 49.8105 42.6572 49.3424 42.6572Z" fill="#407093"/>
<path d="M27.5 50.3417C26.9307 50.3417 26.4693 49.9836 26.4693 49.5419V48.2357C26.4693 47.7939 26.9307 47.4359 27.5 47.4359C28.0692 47.4359 28.5308 47.794 28.5308 48.2357V49.5419C28.5308 49.9836 28.0692 50.3417 27.5 50.3417V50.3417Z" fill="#2B4D66"/>
</svg>
