<svg width="25" height="25" viewBox="0 0 25 25" fill="none" xmlns="http://www.w3.org/2000/svg">
<path d="M12.5 0C5.60806 0 0 5.60708 0 12.5C0 19.3929 5.60806 25 12.5 25C19.3929 25 25 19.3929 25 12.5C25 5.60708 19.3919 0 12.5 0ZM12.5 23.0635C6.67505 23.0635 1.93647 18.325 1.93647 12.5C1.93647 6.67505 6.67505 1.93647 12.5 1.93647C18.325 1.93647 23.0635 6.67505 23.0635 12.5C23.0635 18.325 18.325 23.0635 12.5 23.0635Z" fill="black"/>
<path d="M17.3412 11.4446H7.65875C7.12428 11.4446 6.69049 11.8784 6.69049 12.4129C6.69049 12.9474 7.12428 13.3811 7.65875 13.3811H17.3412C17.8756 13.3811 18.3094 12.9474 18.3094 12.4129C18.3094 11.8784 17.8756 11.4446 17.3412 11.4446Z" fill="black"/>
</svg>
